# xmcd CD database file
#
# Track frame offsets:
#	150
#	39745
#	74458
#	114348
#	147525
#	174955
#	214643
#
# Disc length: 3507 seconds
#
# Revision: 0
# Processed by: cddbd v1.5.2PL0 Copyright (c) Steve Scherf et al.
# Submitted via: CDex 1.51
#
DISCID=640db107
DTITLE=tim warfield - a whisper in the midnight
DYEAR=1900
DGENRE=Jazz
TTITLE0=tin soldier
TTITLE1=soprano song
TTITLE2=speak low
TTITLE3=I've never been blue before
TTITLE4=a whisper in the midnight
TTITLE5=bye bye blackbird
TTITLE6=prayer for uthman
EXTD=
EXTT0=
EXTT1=
EXTT2=
EXTT3=
EXTT4=
EXTT5=
EXTT6=
PLAYORDER=
